<?xml version="1.0" encoding="utf-8"?>
<!-- Generator: Adobe Illustrator 24.1.2, SVG Export Plug-In . SVG Version: 6.00 Build 0)  -->
<svg version="1.1" xmlns="http://www.w3.org/2000/svg" xmlns:xlink="http://www.w3.org/1999/xlink" x="0px" y="0px"
	 viewBox="0 0 500 500" style="enable-background:new 0 0 500 500;" xml:space="preserve">
<style type="text/css">
	.st0{fill:#FFFFFF;}
	.st1{fill:#E6ECEF;}
	.st2{fill:#D6E0E5;}
	.st3{fill:#C1CED6;}
	.st4{fill:#153351;}
	.st5{fill:#FCB6AC;}
	.st6{fill:#389FE5;}
	.st7{fill:#67C2EF;}
	.st8{fill:#CFEFFE;}
	.st9{fill:#B0D9EF;}
	.st10{fill:#F9DCE0;}
	.st11{fill:none;stroke:#FFFFFF;stroke-miterlimit:10;}
	.st12{fill:#DCE2E5;}
	.st13{fill:none;stroke:#9DDBF4;stroke-miterlimit:10;}
	.st14{fill:none;stroke:#9DDBF4;stroke-miterlimit:10;stroke-dasharray:2.9903,2.9903;}
	.st15{fill:#E6F8FF;}
	.st16{opacity:0.3;fill:#ED9C80;}
	.st17{fill:#285FAF;}
	.st18{fill:#144E93;}
	.st19{fill:#97DCF7;}
	.st20{fill:none;stroke:#CFEFFE;stroke-width:2;stroke-miterlimit:10;}
	.st21{fill:#E8505C;}
	.st22{clip-path:url(#SVGID_2_);}
	.st23{fill:none;stroke:#F4BAC0;stroke-miterlimit:10;}
	.st24{fill:none;stroke:#F4BAC0;stroke-linejoin:round;stroke-miterlimit:10;}
	.st25{opacity:0.55;fill:#BF5A66;}
	.st26{fill:#B8E3F4;}
	.st27{fill:#9DDBF4;}
	.st28{fill:#AF835B;}
	.st29{fill:#9CD9F2;}
	.st30{fill:none;stroke:#9DDBF4;stroke-miterlimit:10;stroke-dasharray:3.0576,3.0576;}
	.st31{fill:none;stroke:#9DDBF4;stroke-miterlimit:10;stroke-dasharray:3.0288,3.0288;}
</style>
<g id="BACKGROUND">
	<rect class="st0" width="500" height="500"/>
</g>
<g id="OBJECTS">
	<g>
		<g>
			<path class="st1" d="M452.94,409.21c0,2.63-16.1,4.77-35.96,4.77c-19.86,0-35.96-2.14-35.96-4.77c0-2.64,16.1-4.77,35.96-4.77
				C436.84,404.43,452.94,406.57,452.94,409.21z"/>
		</g>
		<ellipse class="st1" cx="236.38" cy="424.66" rx="177.39" ry="12.59"/>
		<g>
			<g>
				<path class="st2" d="M155.57,408.89c-22.88-1.1-45.73-0.55-68.62-0.53c-8.11,0.01-16.23,0.11-24.31,0.77
					c-5.67,0.46-12.5,0.75-17.6,3.59c-2.53,1.41-3.85,4.22-0.98,6.03c3.92,2.48,9.73,2.6,14.19,2.96
					c16.47,1.34,33.14,0.6,49.63,0.12c24.49-0.71,49.05,0.52,73.52-0.67c0.5-0.02,0.51-0.79,0-0.79
					c-14.42-0.05-28.83,0.23-43.25,0.13c-7.4-0.05-14.77-0.05-22.17,0.16c-15.99,0.44-31.99,1.1-47.99,0.63
					c-6.25-0.18-12.67-0.37-18.8-1.72c-2.22-0.49-8.43-2.17-4.82-5.29c1.7-1.48,4.25-2.06,6.39-2.56c3.39-0.79,6.87-1.21,10.34-1.53
					c7.61-0.7,15.27-0.86,22.9-0.91c23.86-0.17,47.7-0.39,71.57-0.08C155.77,409.2,155.77,408.9,155.57,408.89L155.57,408.89z"/>
			</g>
		</g>
		<g>
			<g>
				<path class="st3" d="M308.97,391.9c19.36,0.35,38.67,2.38,57.92,4.32c2.23,0.23,4.48,0.57,6.56,1.44
					c1.06,0.44,2.42,1.05,2.97,2.14c0.97,1.93-0.57,3.68-2.17,4.46c-2.27,1.11-5.12,1.1-7.6,1.32c-2.59,0.23-5.18,0.38-7.77,0.47
					c-9.74,0.35-19.49-0.16-29.22-0.5c-10.96-0.39-22.37-0.98-33.21,1.06c-0.57,0.11-0.44,1.05,0.14,1.01
					c11.4-0.74,22.63-1.02,34.05-0.6c11.35,0.41,22.73,1,34.08,0.15c3.73-0.28,9.94,0.04,12.46-3.4c1.58-2.17,1.03-4.8-1.11-6.32
					c-3.43-2.44-8.26-2.53-12.29-2.81c-5.14-0.36-10.27-0.99-15.41-1.44c-13.1-1.16-26.22-1.91-39.38-1.83
					C308.62,391.37,308.62,391.89,308.97,391.9L308.97,391.9z"/>
			</g>
		</g>
		<g>
			<g>
				<path class="st3" d="M440.77,397.97c0.26,2.56,3.79,2.86,5.78,3.1c2.14,0.26,4.21,0.59,6.32,1.08c3.11,0.72,7,1.32,9.75,3.01
					c2.31,1.42,3.4,3.95,1.91,6.42c-1.61,2.66-5.17,3.68-8,4.33c-6.05,1.4-12.33,0.79-18.48,0.86c-27.27,0.3-54.57,0.22-81.84,0.78
					c-15.37,0.32-30.71-0.01-46.08,0.09c-0.67,0-0.67,1.04,0,1.04c14.37-0.09,28.74,0.33,43.12-0.01
					c14.64-0.35,29.28-0.4,43.93-0.45c14.2-0.05,28.4-0.53,42.6-0.51c6.09,0.01,12.32,0.44,18.25-1.23c3.39-0.96,7.87-2.9,8.07-7.02
					c0.26-5.26-6.58-6.44-10.36-7.4c-2.55-0.65-5.14-1.3-7.77-1.53c-1.95-0.17-6.42-0.07-6.91-2.59
					C441.02,397.77,440.75,397.81,440.77,397.97L440.77,397.97z"/>
			</g>
		</g>
		<g>
			<g>
				<path class="st3" d="M435.65,399.69c0.04,0.86,1.33,1.62,1.93,2.06c1.65,1.23,3.43,2.3,5.15,3.44c2.96,1.96,8.19,4.8,9.03,8.62
					c1.23,5.57-11.22,6.72-14.31,7.15c-18.58,2.61-37.69,1.5-56.39,1.6c-12.62,0.07-25.23,0.36-37.85,0.63
					c-12.73,0.27-25.47-0.21-38.2-0.11c-0.67,0.01-0.67,1.04,0,1.04c11.59-0.09,23.18,0.3,34.77,0.17
					c11.76-0.13,23.52-0.56,35.29-0.67c20.08-0.19,40.51,0.95,60.49-1.49c4.24-0.52,8.67-1.13,12.62-2.82
					c1.75-0.75,3.88-1.89,4.4-3.89c0.95-3.68-3.8-6.93-6.29-8.71c-2.16-1.55-4.44-2.91-6.7-4.32c-0.8-0.5-3.49-1.65-3.65-2.74
					C435.91,399.49,435.64,399.53,435.65,399.69L435.65,399.69z"/>
			</g>
		</g>
		<g>
			<path id="XMLID_11_" class="st1" d="M393.4,367.97c0,1.44,13.26,2.61,29.62,2.61c16.36,0,29.62-1.17,29.62-2.61
				c0-1.44-13.26-2.61-29.62-2.61C406.66,365.36,393.4,366.53,393.4,367.97z"/>
			<g>
				<path class="st4" d="M417.24,207.55c-1.11,1.12-2.15,2.36-2.7,3.85c-0.55,1.48-0.53,3.24,0.37,4.54
					c0.48,0.69,1.32,1.24,2.13,1.02c0.22-0.06,0.41-0.17,0.61-0.29c2-1.25,3.4-3.44,3.69-5.78"/>
			</g>
			<g>
				<g id="XMLID_5_">
					<path id="XMLID_7_" class="st5" d="M440.54,356.92c0,0,1.32,3.84,1.7,4.8c0.38,0.96,3.23,0.08,3.39-0.54
						c0.16-0.62-1.12-5.2-1.12-5.2"/>
					<path id="XMLID_6_" class="st6" d="M446.48,361.27c0.35,1.02,0.99,2.48,0.85,2.99c-0.14,0.51-3.75,2.05-4.56,2.54
						c-0.6,0.37-1.93,0.87-2.61,0.99c-2.4,0.43-4.24,0.01-4.43-0.36c-0.76-1.56,3.99-2.59,6.02-6.99c0,0,0.36-0.04,0.73,0.33
						c0.58,0.57,1.38,0.8,2.03,0.41c0.37-0.22,0.82-0.7,1-1.15C445.52,360.04,446.14,360.25,446.48,361.27z"/>
				</g>
				<g id="XMLID_8_">
					<path id="XMLID_10_" class="st5" d="M408.76,358.51c0,0,0.09,4.06,0.16,5.09c0.07,1.03,3.05,1.06,3.4,0.51
						c0.35-0.54,0.52-5.3,0.52-5.3"/>
					<path id="XMLID_9_" class="st6" d="M413.09,364.45c0.02,1.08,0.19,2.66-0.1,3.11c-0.29,0.45-4.19,0.81-5.11,1.03
						c-0.68,0.17-2.1,0.24-2.79,0.15c-2.42-0.32-4.05-1.28-4.11-1.69c-0.26-1.72,4.59-1.26,7.86-4.83c0,0,0.35,0.07,0.6,0.54
						c0.37,0.72,1.07,1.18,1.81,1.01c0.42-0.1,1-0.42,1.3-0.79C412.55,362.99,413.07,363.37,413.09,364.45z"/>
				</g>
				<path class="st5" d="M379.2,197.56c0.05-0.44,0.62-0.22,0.76,0.14c0.02,0.05,0.05,0.16,0.08,0.31
					c-0.05-0.72-0.08-1.32-0.06-1.46c0.05-0.42,0.57-0.26,0.75,0.07c-0.01-0.29-0.01-0.51,0-0.6c0.05-0.53,0.62-0.31,0.76,0.13
					c0.03,0.1,0.08,0.38,0.12,0.74c-0.01-0.19-0.01-0.34,0-0.41c0.05-0.44,0.56-0.32,0.7,0.04c0.05,0.12,0.07,0.34,0.15,0.85
					c0.06,0.44,0.19,0.92,0.24,1.36c0.05,0.4,0.52,2.3,1.47,2.51c1.44,0.31,0.53-2.2,1.55-2.77c0.32-0.18,0.66,1.77,0.68,2.87
					c0.02,1.1,0.03,1.65-0.07,2.3c-0.09,0.65-0.45,1.57-0.4,1.96c0.08,0.63,0.82,1.93,0.82,1.93l-3.65,0.83c0,0-0.86-2.01-1.3-2.47
					c-1.11-1.11-1.8-2.37-2.21-3.91c-0.26-0.96-0.34-1.97-0.42-2.95C379.16,199.05,379.18,197.7,379.2,197.56z"/>
				<path class="st5" d="M413.52,228.07c0,0-11.58-0.1-17.86-7.15c-5.01-7.02-9.86-14.8-10.22-15.52c-0.99,0.38-3.11,1.35-3.11,1.35
					s6.62,14.82,9.2,18.2c2.58,3.38,7.66,8.93,18.38,11.68C415.06,230.74,413.52,228.07,413.52,228.07z"/>
				<path class="st7" d="M404.83,320.26c-0.67-8.72,2.35-36.06,2.64-38.41c0.28-2.35,1.95-2.65,3.21-3.04
					c6.31-1.9,13.79,7.89,11.79,16.67c-0.03,0.14-0.07,0.29-0.11,0.44c-1.19,5.09-7.88,21.44-7.41,26.16
					c3.66,9.89-0.49,30.39-1.75,39.01c-0.15,0-0.31,0-0.45-0.01c-3.15-0.1-4.93-0.54-4.93-0.54S405.5,328.98,404.83,320.26z"/>
				<g>
					<path class="st6" d="M412.83,321.98c-0.23-3.22,3.03-28.82,3.83-28.47c0.27,0.12,0.43,0.38,0.58,0.64
						c0.67,1.16,1.32,2.33,1.89,3.55c0.59,1.26,1.07,2.55,1.49,3.86c-2.36,6.96-6.01,17-5.66,20.53c2.17,5.86,1.59,15.45,0.5,24.09
						C415.89,334.82,413.02,324.55,412.83,321.98z"/>
				</g>
				<path class="st7" d="M408.48,272.54c0,0,2.4,0.59,7.17,0.47c6.06-0.16,13.75-3.23,13.75-3.23c7.73,8.37,3.48,18.17,3.75,21.39
					c0.27,3.22,0.89,18.53,1.59,27.06c7.84,7.68,8.13,28.09,10.42,38.83c0.03,0.12,0.06,0.24,0.08,0.37
					c-3.22,1.19-5.2,1.45-5.2,1.45s-0.3-0.86-0.3-0.86c-2.33-7.06-13.12-27.31-15.81-35.22c-2.44-7.18-8.73-28.97-8.84-28.95
					l-8.02,1.37C407.05,281.33,408.48,272.54,408.48,272.54z"/>
				<g>
					<g id="XMLID_967_">
						<path class="st5" d="M413.33,220.23c-0.03,0.74-0.05,3.63,1.48,4.32c1.53,0.7,2.52,0.99,2.47,1.23
							c-0.02,0.11-0.17,0.62-0.33,1.11c-0.35,1.11-0.89,1.39-0.89,1.39l-0.22,3.7l2.76,2.75l0.9,0.9l1.35-1.24l4.41-4.02
							c0,0-1.82-2.24-0.56-4.64c0.18-0.34,2.19-2.56,3.79-4.81c0.93-1.32,1.73-2.63,1.94-3.57c0.58-2.57,1.06-5.27-0.41-6.88
							c-1.46-1.61-12.34-6.77-14.27,1.62c0,0-1.64,2.18-2.39,2.85c-0.76,0.68-0.57,1.6,0.11,1.98
							C414.14,217.32,413.36,219.5,413.33,220.23z"/>
					</g>
				</g>
				<path class="st8" d="M406.44,281.79c0,0,12.54,3.08,28.3,0.16c-0.76-4.87-2.05-19.52-2.25-25.07l-0.02-0.57
					c-0.13-3.54-0.19-6.08-0.27-6.18c-0.16-0.22,0.4-11.53-0.53-15.96c-0.17-0.82-0.4-1.4-0.68-1.63c-1.84-1.53-4.01-3.14-6.43-4.34
					c0,0-5.64,6.06-8.51-0.65c-3.17-0.29-4.78,0.35-5.69,3.52C405.28,248.67,406.44,281.79,406.44,281.79z"/>
				<path class="st8" d="M413.68,227.59c0,0-5.24,0.09-10.59-2.28c-2.98,3.51-4.79,9.9-4.79,9.9s7.21,4.59,12.49,5.03
					C411.92,232.55,413.68,227.59,413.68,227.59z"/>
				<path class="st9" d="M412.66,228.69c0,0-3.25,4.11-4.32,11.1c-3.64-0.71-9.33-3.85-10.04-4.58c1.6,0.52,8.43,3.06,9.37,0.96
					C409.41,232.25,412.66,228.69,412.66,228.69z"/>
				<g>
					<path class="st6" d="M414.01,232.63l-23.2,2.52l4.83,13.26l19.44-13.34c0.59-0.27,0.83-0.84,0.57-1.33l-0.25-0.48
						C415.17,232.82,414.6,232.57,414.01,232.63z"/>
					<path class="st7" d="M391.38,242.14c1.33,3.66,3.24,6.46,4.25,6.26c1.01-0.2,0.76-3.34-0.58-7c-1.33-3.66-3.24-6.46-4.25-6.26
						S390.05,238.48,391.38,242.14z"/>
				</g>
				<g>
					<path class="st5" d="M434.45,250.09c0,0-2.43,8.37-8.74,12.31c-1.84,1.15-4.14,0.51-5.59-1.11
						c-4.32-4.83-8.64-15.71-10.02-19.82c2.53-1.34,3.34-1.13,3.34-1.13s6.13,8.5,9.64,14.2l2.63-4.58"/>
					<path class="st5" d="M413.62,240.65c0,0-1.13-1.82-1.18-3.2c-0.05-1.38,0.6-3.76-0.74-5c-0.5-0.46-2.24-1.17-4.21-0.84
						c-2.92,0.48-3.71,1.35-3.56,1.96c0.16,0.62,2.18,0.83,2.71,1.88c0.53,1.05,0.23,1.71,0.37,2.86c0.2,1.73,2.61,2.46,3.14,3.32
						C410.53,242.24,413.62,240.65,413.62,240.65z"/>
				</g>
				<path class="st9" d="M431.67,277.08c-0.73-2.52-1.44-17.36-1.52-19.56c-1.97-0.2-5.78-1.65-8.01-5.22
					c0.82-1.41,2.88-6.3,6.68-10.46l2.2-8.24c0,0,0.25,0.19,0.64,0.56c0.93,4.43,0.37,15.75,0.53,15.96
					c0.08,0.1,0.14,2.64,0.27,6.18l0.02,0.57c0,0,0,0,0,0c0.21,5.55,1.48,20.2,2.25,25.07c-15.75,2.92-28.3-0.16-28.3-0.16
					S432.49,279.94,431.67,277.08z"/>
				<g>
					<path class="st8" d="M429.54,231.38c0,0,6.5,4.26,6.78,11.51c0.21,5.61-3.49,13.79-3.49,13.79s-6.43,0.71-9.81-4.55
						c1-2.55,1.88-4.82,3.8-7.84"/>
				</g>
			</g>
			<g>
				<path class="st4" d="M419.74,209.47c-2.43-0.76-5.66-0.9-4.23-4.43c0.83-2.06,3.65-3.74,7.06-3.55c1.87,0.1,3.95,2.16,5.13,4.66
					c5.39,2.12,6.05,6.47,4.97,10.85c0,0-2.39,8.27-8.64,8.58c0,0,0.04-1.65,0.64-3.81c0,0,2.54-0.85,3-2.37
					c0.63-2.11-2.34-0.7-2.34-0.7s-0.03-1.66,0.29-3.14c0.12-0.56,0.46-1.01,0.89-1.39C426.39,213.97,425.15,211.16,419.74,209.47z"
					/>
			</g>
		</g>
		<g>
			<g>
				<path class="st10" d="M378.49,395.9c-3.34-6.57-4.24-14.51-1.29-21.42c1.71-4,4.1-7.94,7.58-10.63
					c3.03-2.35,6.6-4.03,10.31-5.01c6.38-1.69,13.47-1.13,19.16,2.21c4.75,2.79,8.23,7.31,10.52,12.26
					c2.23,4.82,3.18,10.82,7.99,13.93c1.37,0.89,3.66,1.26,4.34,2.91c0.81,1.97-0.66,3.93-1.44,5.64c-0.93,2.03-1.86,4.07-2.78,6.1
					c-0.66,1.46-1.3,3.98-3.06,4.52c-1.69,0.6-3.48-0.86-5.06-1.29c-4.16-1.15-8.68,0.48-12.47,2.14c-4.35,1.9-8.84,2.95-13.61,2.53
					C389.83,409,382.48,403.76,378.49,395.9z"/>
			</g>
			<path class="st11" d="M436.03,397.74c0,0-13.42-6.62-19.83-10.24c-1.7-0.96-3.47-1.92-5.8-4c-1.5-1.34-4.55-4.5-2.6-6.59
				c2.31-2.46,5.02,1.56,5,3.8c-0.02,1.85-1.6,4.57-3.14,5.65c-2.69,1.91-6.84,1.42-9.4-0.16c-1.96-1.21-0.86-4.09,1.32-3.95
				c2.08,0.14,7.94,4.52,6.59,8.04c-0.71,1.85-2.22,3.32-4,4.19c-3.21,1.57-7.37-2.5-2.86-3.95c3.21-1.03,7.3,0.08,10.31,1.25
				c8.23,3.2,14.6,5.92,22.77,9.27"/>
			
				<rect x="427.45" y="398.07" transform="matrix(-0.4087 0.9127 -0.9127 -0.4087 976.8139 164.7778)" class="st6" width="15.16" height="1.5"/>
			<path class="st7" d="M436.98,408.95c-0.18-0.37-0.65-0.57-1.04-0.43l-0.13,0.04c-0.38,0.13-0.84-0.06-1.03-0.42l-0.11-0.22
				c-0.19-0.38-0.69-0.56-1.07-0.4c-0.37,0.16-0.86-0.02-1.06-0.39l-0.33-0.59c-0.12-0.22-0.13-0.48-0.03-0.7l6.16-13.74
				c0.1-0.23,0.3-0.39,0.54-0.44l0.66-0.15c0.41-0.09,0.86,0.15,0.99,0.53c0.13,0.39,0.6,0.63,1.01,0.53l0.24-0.06
				c0.39-0.1,0.84,0.12,1,0.49l0.05,0.13c0.16,0.37,0.62,0.6,1.02,0.48l0.18-0.05c0.4-0.11,0.88,0.12,1.02,0.51l0.03,0.08
				c0.16,0.42,0.16,0.87-0.01,1.25l-5.94,13.28c-0.17,0.38-0.5,0.68-0.92,0.84l-0.08,0.03c-0.39,0.15-0.87-0.05-1.06-0.43
				L436.98,408.95z"/>
			<g>
				<g>
					<path class="st6" d="M433.98,407.02c-0.03,0-0.07-0.01-0.1-0.02c-0.12-0.06-0.18-0.2-0.12-0.33l2.87-6.41
						c0.06-0.12,0.2-0.18,0.33-0.12c0.12,0.06,0.18,0.2,0.12,0.33l-2.87,6.41C434.17,406.97,434.08,407.02,433.98,407.02z"/>
				</g>
				<g>
					<path class="st6" d="M438.13,397.76c-0.03,0-0.07-0.01-0.1-0.02c-0.12-0.06-0.18-0.2-0.12-0.33l1.59-3.55
						c0.06-0.12,0.2-0.18,0.33-0.12c0.12,0.06,0.18,0.2,0.12,0.33l-1.59,3.55C438.31,397.7,438.22,397.76,438.13,397.76z"/>
				</g>
				<g>
					<path class="st6" d="M437.55,403.27c-0.03,0-0.07-0.01-0.1-0.02c-0.12-0.06-0.18-0.2-0.12-0.33l4.16-9.28
						c0.06-0.12,0.2-0.18,0.33-0.12c0.12,0.06,0.18,0.2,0.12,0.33l-4.16,9.28C437.73,403.21,437.64,403.27,437.55,403.27z"/>
				</g>
				<g>
					<path class="st6" d="M435.54,407.74c-0.03,0-0.07-0.01-0.1-0.02c-0.12-0.06-0.18-0.2-0.12-0.33l1.23-2.74
						c0.06-0.12,0.2-0.18,0.33-0.12c0.12,0.06,0.18,0.2,0.12,0.33l-1.23,2.74C435.73,407.69,435.64,407.74,435.54,407.74z"/>
				</g>
				<g>
					<path class="st6" d="M440.64,400.58c-0.03,0-0.07-0.01-0.1-0.02c-0.12-0.06-0.18-0.2-0.12-0.33l2.22-4.97
						c0.06-0.12,0.2-0.18,0.33-0.12c0.12,0.06,0.18,0.2,0.12,0.33l-2.22,4.97C440.82,400.53,440.73,400.58,440.64,400.58z"/>
				</g>
				<g>
					<path class="st6" d="M438.29,405.83c-0.03,0-0.07-0.01-0.1-0.02c-0.12-0.06-0.18-0.2-0.12-0.33l0.89-2
						c0.06-0.12,0.2-0.18,0.33-0.12c0.12,0.06,0.18,0.2,0.12,0.33l-0.89,2C438.47,405.77,438.38,405.83,438.29,405.83z"/>
				</g>
				<g>
					<path class="st6" d="M437.41,399.37c-0.03,0-0.07-0.01-0.1-0.02c-0.12-0.06-0.18-0.2-0.12-0.33l0.32-0.72
						c0.06-0.12,0.2-0.18,0.33-0.12c0.12,0.06,0.18,0.2,0.12,0.33l-0.32,0.72C437.59,399.31,437.5,399.37,437.41,399.37z"/>
				</g>
			</g>
			<g>
				<path class="st10" d="M378.49,395.9c-3.34-6.57-4.24-14.51-1.29-21.42c0.34-0.79,0.7-1.57,1.09-2.35
					c-4.24,11.28,1.04,25.06,12.68,29.84c9.78,4.02,18.77,2.39,27.36-5.47c1.8-1.64,3.8-2.5,6.28-1.78
					c2.29,0.67,4.17,2.33,6.53,2.84c0.36,0.08,0.73,0.12,1.08,0c0.32-0.11,0.57-0.35,0.81-0.6c1.93-2.02,3.18-4.56,3.83-7.28
					c0.1,0.14,0.18,0.29,0.25,0.45c0.81,1.97-0.66,3.93-1.44,5.64c-0.93,2.03-1.86,4.07-2.78,6.1c-0.66,1.46-1.3,3.98-3.06,4.52
					c-1.69,0.6-3.48-0.86-5.06-1.29c-4.16-1.15-8.68,0.48-12.47,2.14c-4.35,1.9-8.84,2.95-13.61,2.53
					C389.83,409,382.48,403.76,378.49,395.9z"/>
			</g>
		</g>
		<g>
			<path class="st12" d="M170.57,109.85l-1.77-7.33l-3.07,0.74c-1.13-2.48-2.72-4.65-4.66-6.42l1.64-2.69l-6.43-3.93l-1.64,2.69
				c-2.46-0.92-5.12-1.35-7.84-1.23l-0.74-3.07l-7.33,1.77l0.74,3.07c-2.48,1.13-4.65,2.73-6.42,4.67l-2.68-1.64l-3.93,6.43
				l2.69,1.64c-0.92,2.46-1.35,5.12-1.22,7.84l-3.07,0.74l1.77,7.33l3.07-0.74c1.13,2.48,2.73,4.65,4.67,6.42l-1.64,2.69l6.43,3.93
				l1.64-2.69c2.46,0.92,5.12,1.35,7.84,1.22l0.74,3.07l7.33-1.77l-0.74-3.07c2.48-1.13,4.65-2.72,6.42-4.66l2.69,1.64l3.93-6.43
				l-2.69-1.64c0.92-2.46,1.35-5.12,1.22-7.84L170.57,109.85z M151.06,125.43c-7.7,1.86-15.43-2.88-17.29-10.58
				c-1.86-7.68,2.87-15.43,10.56-17.29c7.7-1.86,15.43,2.88,17.29,10.56C163.47,115.82,158.75,123.57,151.06,125.43z"/>
			<path class="st12" d="M149.84,120.4c-4.92,1.19-9.86-1.84-11.05-6.76c-1.19-4.91,1.83-9.86,6.75-11.05
				c4.92-1.19,9.86,1.84,11.05,6.75C157.78,114.26,154.76,119.21,149.84,120.4z"/>
		</g>
		<g>
			<g>
				<path class="st13" d="M166.05,187.17c-0.48,0.04-0.98,0.08-1.49,0.12"/>
				<path class="st14" d="M161.58,187.59c-9.18,1.02-21.07,3.64-23.04,13.3c-0.72,3.55,2.48,6.69,5.72,8.32
					c10.92,5.48,23.93,3.74,35.7,3.58c14.43-0.2,28.88-0.07,43.32-0.11c29.42-0.07,58.88,0.13,88.21,2.61
					c10.88,0.92,23.11,4.01,32.39,9.88c13.03,8.24,10.57,23.25-4.7,27.99c-15.51,4.82-74.69-2.29-86.64,58.48"/>
				<path class="st13" d="M252.25,313.12c-0.09,0.49-0.17,0.98-0.26,1.48"/>
			</g>
		</g>
		<path class="st15" d="M289.17,188.08c0,0,83.46,0,98.27,0c14.82,0,15-18.77,1.85-22.55c-13.53-3.88-23.14,5-23.14,5
			s-3.57-46.14-37.4-40.72c-26.67,4.27-25.12,33.93-25.12,33.93s-5.49-12.21-19.88-7.59C268.75,160.97,270.38,188.08,289.17,188.08z
			"/>
		<path class="st15" d="M202.13,156.45c0,0-63.69,0-75,0c-11.31,0-11.45-12.86-1.41-15.45c10.33-2.66,17.66,3.43,17.66,3.43
			s2.72-31.61,28.54-27.9c20.35,2.93,19.17,23.25,19.17,23.25s4.19-8.36,15.17-5.2C217.71,137.87,216.47,156.45,202.13,156.45z"/>
		<path class="st15" d="M280.83,94.22c0,0,60.11,0,70.78,0s10.81-12.14,1.33-14.58c-9.75-2.51-16.66,3.23-16.66,3.23
			s-2.57-29.83-26.94-26.33c-19.21,2.76-18.09,21.94-18.09,21.94s-3.95-7.89-14.32-4.91C266.13,76.69,267.3,94.22,280.83,94.22z"/>
		<g>
			<g>
				<path class="st4" d="M99.5,166.86c0.59-1.62,1.18-3.25,1.77-4.87c0.25-0.69,0.55-1.45,1.21-1.8c0.39-0.21,0.86-0.23,1.29-0.13
					c1.55,0.35,2.36,2.04,2.79,3.56c0.71,2.5,1.01,5.15,2.11,7.51c0.25,0.53,0.54,1.05,0.67,1.63c0.41,1.81-0.98,4.84-3.24,4.48
					c-0.35-0.06-0.68-0.2-1.01-0.32c-1.41-0.53-2.38-0.12-3.75,0.27c-1.27,0.35-2.63,0.1-3.76-0.56c-1.26-0.74-2.2-2-2.54-3.42"/>
			</g>
			<g>
				<g>
					<g>
						<path class="st2" d="M124.26,426.19c0.16,0,0.33-0.03,0.49-0.11c0.83-0.38,1.31-1.62,1.08-2.78
							c-6.1-29.89-11.92-60.1-17.55-89.32c-5.62-29.2-11.44-59.39-17.49-88.99c-0.24-1.15-1.1-1.79-1.93-1.4
							c-0.83,0.38-1.32,1.62-1.08,2.78c6.04,29.56,11.85,59.74,17.48,88.93c5.63,29.23,11.45,59.46,17.56,89.38
							C123.01,425.6,123.61,426.19,124.26,426.19z"/>
					</g>
					<g>
						<path class="st2" d="M160.2,426.19c0.16,0,0.33-0.03,0.49-0.11c0.83-0.38,1.31-1.62,1.08-2.78
							c-6.1-29.89-11.92-60.1-17.55-89.32c-5.62-29.2-11.44-59.39-17.49-88.99c-0.24-1.15-1.1-1.79-1.93-1.4
							c-0.83,0.38-1.32,1.62-1.08,2.78c6.04,29.56,11.85,59.74,17.48,88.93c5.63,29.23,11.45,59.46,17.56,89.38
							C158.95,425.6,159.55,426.19,160.2,426.19z"/>
					</g>
					<g>
						<path class="st2" d="M119.71,401.05"/>
					</g>
					<g>
						<path class="st2" d="M153.8,401.05"/>
					</g>
					<g>
						<path class="st2" d="M114.71,373.55h34.1c0.86,0,1.59-0.98,1.63-2.2c0.04-1.21-0.63-2.2-1.5-2.2h-34.1
							c-0.86,0-1.59,0.98-1.63,2.2C113.18,372.56,113.85,373.55,114.71,373.55z"/>
					</g>
					<g>
						<path class="st2" d="M109.28,343.84h34.1c0.86,0,1.59-0.98,1.63-2.2s-0.63-2.2-1.5-2.2h-34.1c-0.86,0-1.59,0.98-1.63,2.2
							C107.75,342.86,108.42,343.84,109.28,343.84z"/>
					</g>
					<g>
						<path class="st2" d="M120.14,403.25h34.1c0.86,0,1.59-0.98,1.63-2.2c0.04-1.21-0.63-2.2-1.5-2.2h-34.1
							c-0.86,0-1.59,0.98-1.63,2.2C118.61,402.27,119.28,403.25,120.14,403.25z"/>
					</g>
					<g>
						<path class="st2" d="M102.79,314.14h34.1c0.86,0,1.59-0.98,1.63-2.2c0.04-1.21-0.63-2.2-1.5-2.2h-34.1
							c-0.86,0-1.59,0.98-1.63,2.2S101.93,314.14,102.79,314.14z"/>
					</g>
					<g>
						<path class="st2" d="M97.86,284.43h34.1c0.86,0,1.59-0.98,1.63-2.2c0.04-1.21-0.63-2.2-1.5-2.2H98c-0.86,0-1.59,0.98-1.63,2.2
							S97,284.43,97.86,284.43z"/>
					</g>
					<g>
						<path class="st2" d="M90.87,254.73h34.1c0.86,0,1.59-0.98,1.63-2.2c0.04-1.21-0.63-2.2-1.5-2.2H91c-0.86,0-1.59,0.98-1.63,2.2
							C89.34,253.75,90.01,254.73,90.87,254.73z"/>
					</g>
				</g>
				<g>
					<g>
						<path class="st3" d="M105.67,426.19c-0.16,0-0.33-0.03-0.5-0.11c-0.86-0.38-1.45-1.62-1.31-2.78
							c3.58-29.89,6.84-60.1,10-89.32c3.16-29.2,6.42-59.39,9.97-88.99c0.14-1.15,0.95-1.79,1.81-1.4c0.86,0.38,1.45,1.62,1.31,2.78
							c-3.54,29.56-6.81,59.74-9.96,88.93c-3.16,29.23-6.43,59.46-10.01,89.38C106.87,425.6,106.33,426.19,105.67,426.19z"/>
					</g>
					<g>
						<path class="st3" d="M69.73,426.19c-0.16,0-0.33-0.03-0.5-0.11c-0.86-0.38-1.45-1.62-1.31-2.78c3.58-29.89,6.84-60.1,10-89.32
							c3.16-29.2,6.42-59.39,9.97-88.99c0.14-1.15,0.95-1.79,1.81-1.4c0.86,0.38,1.45,1.62,1.31,2.78
							c-3.54,29.56-6.81,59.74-9.96,88.93c-3.16,29.23-6.43,59.46-10.01,89.38C70.93,425.6,70.39,426.19,69.73,426.19z"/>
					</g>
					<g>
						<path class="st3" d="M108.1,401.05"/>
					</g>
					<g>
						<path class="st3" d="M74.01,401.05"/>
					</g>
					<g>
						<path class="st3" d="M110.77,373.55h-34.1c-0.86,0-1.68-0.98-1.81-2.2c-0.14-1.21,0.45-2.2,1.31-2.2h34.1
							c0.86,0,1.68,0.98,1.81,2.2C112.22,372.56,111.64,373.55,110.77,373.55z"/>
					</g>
					<g>
						<path class="st3" d="M113.69,343.84H79.6c-0.86,0-1.68-0.98-1.81-2.2s0.45-2.2,1.31-2.2h34.1c0.86,0,1.67,0.98,1.81,2.2
							S114.56,343.84,113.69,343.84z"/>
					</g>
					<g>
						<path class="st3" d="M107.85,403.25h-34.1c-0.86,0-1.68-0.98-1.81-2.2c-0.14-1.21,0.45-2.2,1.31-2.2h34.1
							c0.86,0,1.68,0.98,1.81,2.2C109.3,402.27,108.72,403.25,107.85,403.25z"/>
					</g>
					<g>
						<path class="st3" d="M117.67,314.14h-34.1c-0.86,0-1.68-0.98-1.81-2.2c-0.14-1.21,0.45-2.2,1.31-2.2h34.1
							c0.86,0,1.68,0.98,1.81,2.2S118.54,314.14,117.67,314.14z"/>
					</g>
					<g>
						<path class="st3" d="M120.09,284.43h-34.1c-0.86,0-1.68-0.98-1.81-2.2c-0.14-1.21,0.45-2.2,1.31-2.2h34.1
							c0.86,0,1.68,0.98,1.81,2.2S120.95,284.43,120.09,284.43z"/>
					</g>
					<g>
						<path class="st3" d="M124.57,254.73h-34.1c-0.86,0-1.68-0.98-1.81-2.2s0.45-2.2,1.31-2.2h34.1c0.86,0,1.68,0.98,1.81,2.2
							S125.44,254.73,124.57,254.73z"/>
					</g>
				</g>
				<path class="st2" d="M131.57,246.28H83.42v-5.37c0-1.53,1.24-2.76,2.76-2.76h42.62c1.53,0,2.76,1.24,2.76,2.76V246.28z"/>
			</g>
			<g>
				<g id="XMLID_161_">
					<path id="XMLID_208_" class="st5" d="M103.14,189.21c0,0,2.97,0.44,6.72,0.86c5.64,0.65,13.05,1.26,14.93,0.32
						c3.12-1.57,13.38-10.37,13.38-10.37l1.61-1.04c0.27-0.16,0.57-0.26,0.89-0.3c0.34-0.03,0.91-0.11,1.68-0.3
						c0.39-0.11,0.76-0.26,1.08-0.46c0.06-0.02,0.12-0.06,0.18-0.11c0.03-0.02,0.05-0.03,0.05-0.03c0.71-0.46,1.26-1.03,1.72-1.41
						c0.71-0.58-0.35-0.94-1.55-0.35c-1.19,0.57-0.43,0.46-1.19,0.43c-0.75-0.03,0.05-1.15,0.74-1.96c0.64-0.75,0.55-0.77,1.18-1.65
						c0.63-0.86,1.22-1.54,1.56-2.1c0.23-0.39,0.33-0.9-0.12-0.77c-0.47,0.14-2.46,2.09-2.96,2.42c-0.5,0.32-1.23-0.28-2.63,0.49
						c-1.4,0.77-1.94,3.03-2.38,3.75c-0.44,0.72-14.63,9.03-16.4,8.95c-1.76-0.09-15.1-3.27-19.23-3.04
						C100.19,182.67,103.14,189.21,103.14,189.21z"/>
					<path id="XMLID_206_" class="st16" d="M109.86,190.07c5.64,0.65,13.05,1.26,14.93,0.32c3.12-1.57,13.38-10.37,13.38-10.37
						l1.61-1.04c0.27-0.16,0.57-0.26,0.89-0.3c0.34-0.03,0.91-0.11,1.68-0.3c0.39-0.11,0.76-0.26,1.08-0.46
						c-0.95,0.47-2.91,0.08-3.88,0.59c-1.04,0.53-8.25,6.41-11.52,8.49c-3.26,2.06-4.49,2.76-7.42,2.76c-2.93,0-9.89-1.23-9.89-1.23
						L109.86,190.07z"/>
				</g>
				<path id="XMLID_202_" class="st5" d="M136.32,279.95c0,0,0.55,2.91,0.44,5.22c-0.34,1.59-0.06,2.07-0.06,2.07l6.08-0.35
					c0,0-2.64-1.39-2.28-7.64C140.87,272.99,136.32,279.95,136.32,279.95z"/>
				<path id="XMLID_199_" class="st4" d="M136.67,285.64c0,0,2.61,1.05,5.24,0.39c3.03,1.5,5.17,2.12,7.95,2.55
					c2.78,0.43,2.22,2.71-2.54,2.26c-4.75-0.45-8.08-0.33-9.15-0.25c-1.06,0.08-2.76,0.17-2.81-0.57
					C135.32,289.28,135.82,285.37,136.67,285.64z"/>
				<path id="XMLID_196_" class="st5" d="M117.7,282.66c0,0,0.55,2.91,0.44,5.22c-0.34,1.59-0.06,2.07-0.06,2.07l6.08-0.35
					c0,0-2.64-1.39-2.28-7.64C122.25,275.7,117.7,282.66,117.7,282.66z"/>
				<path id="XMLID_193_" class="st4" d="M118.05,288.36c0,0,2.61,1.05,5.24,0.39c3.03,1.5,5.17,2.12,7.95,2.55
					c2.78,0.43,2.22,2.71-2.54,2.26c-4.75-0.45-8.08-0.33-9.15-0.25c-1.06,0.08-2.76,0.17-2.81-0.57
					C116.69,291.99,117.2,288.09,118.05,288.36z"/>
				<path id="XMLID_192_" class="st17" d="M112.16,223.48c0,0,27.68,8.95,28.85,19.82c0.57,5.3,5.11,36.05,5.11,36.05
					s-10.7,3.66-12.95,1.49c0,0-2.49-30.68-3.51-35.81c-1.01-5.13-28.08-16.77-28.08-16.77l1.1-6.97L112.16,223.48z"/>
				<path id="XMLID_3_" class="st17" d="M112.16,223.48c0,0,27.68,8.95,28.85,19.82c0.57,5.3,5.11,36.05,5.11,36.05
					s-10.7,3.66-12.95,1.49c0,0-2.49-30.68-3.51-35.81c-1.01-5.13-28.08-16.77-28.08-16.77l1.1-6.97L112.16,223.48z"/>
				<g>
					<path class="st18" d="M108.65,223.45l-6.48,1.13l-0.58,3.67c0,0,27.06,11.65,28.08,16.77c0.22,1.13,0.52,3.49,0.84,6.48
						c0.5-1.9,0.99-3.81,1.49-5.71c0.19-0.74,0.39-1.49,0.4-2.26c0.02-1.65-0.81-3.2-1.75-4.55
						C126.06,232.41,115.9,226.89,108.65,223.45z"/>
				</g>
				<path id="XMLID_191_" class="st17" d="M117.08,245.64c1.14-7.61-21.13-3.22-25.48-9.74c-1.52-2.28-2.4-9.2,0-11.08
					c4.68-3.65,14.28-2.42,14.28-2.42s22.65,13.56,22.67,19.16c0.02,6.27-3.11,41.71-3.11,41.71s-10.21,1.42-10.92-0.52
					C113.18,272.86,117.08,245.64,117.08,245.64z"/>
				<path id="XMLID_188_" class="st8" d="M108.6,197.81c-0.94,12.69,5,15.7,5.39,26.49c0,0-13.8-1.74-23.65,2.39
					c0,0,0.78-6.14,2.93-11.86c0.06-0.18,0.14-0.34,0.2-0.51c0.41-1.06,0.88-2.11,1.4-3.08c0.02-0.06,0.05-0.11,0.08-0.17
					c0.06-0.14,0.13-0.26,0.17-0.41c0.04-0.05,0.06-0.1,0.07-0.15c0.62-1.65,0.35-3.78-0.39-6.07c-0.69-2.12-1.8-4.37-3-6.46
					c-0.71-1.24-1.47-2.44-2.18-3.51l0-0.01c-2.05-3.06-3.82-5.26-3.82-5.26s-1.21-4.02,1.22-7.54c0-0.01,0.01-0.01,0.02-0.02
					c0.28-0.42,0.61-0.82,1-1.2c1.04-1.04,3.95-2.38,6.32-3.17c0.61-0.2,1.18-0.37,1.68-0.49c0.4-0.1,0.74-0.16,1.03-0.18
					c1.38-0.11,2.42-0.05,3.27,0.13c2.57,0.57,3.39,1.1,7.22,2.26l8.34,3.63c0,0-1.11,6.99-0.26,9.1l-5.78-0.16
					C109.87,191.57,108.71,196.33,108.6,197.81z"/>
				<path id="XMLID_186_" class="st9" d="M95.21,210.53c1.53-4.09-2.35-11.17-5.57-16.04l0-0.01l3.56-3.75c0,0-0.06,6.17,1,8.59
					C95.25,201.71,96.93,206.63,95.21,210.53z"/>
				<path id="XMLID_185_" class="st9" d="M108.15,185.79c0,0,2.41,3.9,1.71,5.78c5.78,0.16,5.78,0.16,5.78,0.16
					s-0.37-0.91-0.33-2.55C114.44,189.41,110.95,190.27,108.15,185.79z"/>
				<g id="XMLID_162_">
					<path id="XMLID_184_" class="st17" d="M103.3,222.51l23-0.92c0.55-0.02,1.01-0.41,1.12-0.95l3.18-15.57
						c0.15-0.76-0.44-1.46-1.22-1.43l-23,0.92c-0.55,0.02-1.01,0.41-1.12,0.95l-3.18,15.57
						C101.93,221.83,102.53,222.54,103.3,222.51z"/>
					<path id="XMLID_182_" class="st18" d="M103.25,221.94l22.9-0.92c0.33-0.01,0.6-0.25,0.67-0.57l3.15-15.39
						c0.09-0.45-0.26-0.88-0.73-0.86l-22.38,0.9c-0.51,0.02-0.95,0.39-1.05,0.89l-3.13,15.29
						C102.62,221.63,102.89,221.96,103.25,221.94z"/>
					<path id="XMLID_164_" class="st5" d="M101.44,214.12l-0.17,0.94l-0.48-0.07l-0.28,1.36c0,0-0.37-0.07-1.07-0.2
						c0-0.01,0-0.01-0.01-0.01c-0.01,0-0.02,0-0.03-0.01c-1.19-0.21-3.3-0.63-6.12-1.29c-1.82-0.41-3.93-0.93-6.3-1.54
						c-3.12-0.8-5.15-2.39-5.2-2.83c-0.09-0.7,0.04-2.08,0.28-3.75c0.12-0.86,0.27-1.79,0.43-2.74c0.57-3.44,1.34-7.13,1.63-8.45
						c0.02-0.14,0.05-0.26,0.07-0.33c0.02-0.12,0.03-0.18,0.03-0.18l0.91,0.35l4.94,1.9l-0.33,0.93L86.66,207
						c-0.02,0.04-0.02,0.09-0.02,0.13c-0.03,0.27,0.13,0.51,0.38,0.6c2.42,0.88,5.33,2.25,7.85,3.52c2.16,1.07,4.05,2.09,5.1,2.66
						c0.08,0.05,0.15,0.09,0.22,0.12c0.26,0.15,0.53,0.17,0.76,0.16C101.23,214.17,101.44,214.12,101.44,214.12z"/>
					<path id="XMLID_180_" class="st5" d="M99.4,216.12c-1.19-0.21-3.29-0.63-6.11-1.29c-1.82-0.42-3.94-0.93-6.3-1.54
						c-3.12-0.81-5.16-2.4-5.2-2.83c-0.09-0.7,0.04-2.09,0.27-3.76c0.54-3.97,1.7-9.51,2.06-11.2c0.02-0.14,0.05-0.26,0.07-0.33
						l1.23,0.64c0,0-0.05,0.22-0.13,0.6c-0.4,1.81-1.6,7.33-2.15,10.54c-0.18,1.07-0.29,1.88-0.28,2.23
						c0.06,1.61,0.94,1.81,2.04,2.27c0.62,0.27,4.85,1.66,8.6,2.86C96.34,215.25,98.92,216.04,99.4,216.12z"/>
					<path id="XMLID_48_" class="st5" d="M99.98,213.91c0,0,0.63,0.14,0.84,0.13c0.33-0.02,0.44-0.08,0.44-0.08s1.33-0.9,2.49-1.04
						l-0.19,0.94c0,0,1.56,0.88,2.05,1.2c0,0,0.51,0.23,0.72,0.29c0.21,0.06,2.03-0.11,2.46-0.1c0.43,0.01,0.67,0.26,0.65,0.53
						c0,0-0.03,0.14-0.26,0.18c-0.04,0.01-0.16,0.02-0.32,0.04c0.22-0.01,0.4-0.02,0.49-0.02c0.43,0.01,0.67,0.26,0.65,0.53
						c0,0-0.03,0.14-0.26,0.18c-0.07,0.01-0.39,0.05-0.81,0.1c0.34,0.06,0.53,0.27,0.52,0.51c0,0-0.03,0.14-0.26,0.18
						c-0.07,0.01-0.42,0.06-0.86,0.11c0.13,0.1,0.2,0.24,0.2,0.38c0,0-0.03,0.14-0.26,0.18c-0.24,0.04-3.43,0.56-3.75,0.5
						c-0.6-0.11-2.87-1.76-2.99-1.85c-0.43-0.25-1-0.48-1-0.48L99.98,213.91z"/>
				</g>
				<path id="XMLID_165_" class="st8" d="M93.88,190.35c-1.28,4.43-1.85,6.76-2.07,7.65c-0.07,0.29-0.1,0.42-0.1,0.42
					s-0.81,0-1.99-0.23c-1.24-0.25-2.9-0.75-4.45-1.77c-0.11-0.07-0.22-0.15-0.32-0.23c-0.29-0.21-0.56-0.42-0.84-0.67
					c-0.46-0.42-0.92-0.9-1.31-1.44c0,0,1.33-8.7,4.23-12.42c0-0.01,0.01-0.01,0.02-0.02c0.52-0.67,1.11-1.19,1.75-1.45
					c0.1-0.04,0.2-0.08,0.29-0.1c1.51-0.49,2.8,0.04,3.73,1.21c0.85,1.04,1.39,2.61,1.55,4.4
					C94.48,187.16,94.35,188.75,93.88,190.35z"/>
				<path id="XMLID_175_" class="st5" d="M103.55,174.46c-1.06,0.56-2.19,0.78-3.32,0.81c0.01,0.46,0.05,0.95,0.12,1.46
					c0.28,0.07,0.43,0.11,0.62,0.17c0.43,0.15,0.23,1,0.18,1.31c-0.24,1.45-1.57,2.05-2.91,1.67c-1.33-0.38-1.83-1.85-2.28-3
					c-0.19-0.48,0.02-2,0.01-2.32c-0.6-0.24-2.23-0.89-2.23-0.89s-2.82-2.29-2.85-4.34c-0.01-0.57,1-2.06,1.02-2.7
					c0.04-2.94,2.01-4.65,3.05-6.34c1.31-2.11,4.73-1.76,7.1-1.2c1.43,0.34,2.48,0.75,2.48,0.75S107.72,172.28,103.55,174.46z"/>
				<g>
					<path class="st4" d="M106.97,155.91c-0.17-0.32-0.36-0.64-0.55-0.94c-0.29,0.57-1.04,0.68-1.67,0.67
						c-2.67-0.06-5.39-1.18-7.93-0.38c-0.75,0.24-1.5,0.7-1.76,1.44c-2.11-0.64-4.23-0.03-5.75,1.63
						c-3.03,3.32-0.22,8.29-1.76,12.09c-0.53,1.3-1.55,2.39-1.91,3.75c-0.32,1.22-0.03,2.58,0.75,3.56c0.87,1.1,2.23,1.68,3.53,2.21
						c0.55,0.22,1.1,0.45,1.67,0.59c1.2,0.29,2.49,0.2,3.63-0.27c0.84-0.34,1.65-0.94,1.89-1.82c0.24-0.86-0.11-1.77-0.47-2.59
						c-0.64-1.46-1.57-2.4-2.47-3.66c-0.91-1.28-1.81-1.88-1.6-3.59c0.03-0.26,0.07-0.55,0.26-0.74c0.3-0.31,0.85-0.21,1.15,0.09
						c0.31,0.3,0.43,0.73,0.55,1.14c0.34-1.14,1.1-2.15,2.11-2.79c0.81-0.52,1.5-0.86,2.09-1.63c0.36-0.47,1.41-1.91,1.03-2.47
						c1.17,0.68,3.52,0.45,4.79,0.12c1.48-0.38,2.88-1.44,3.21-2.93C108.01,158.2,107.56,157.02,106.97,155.91z"/>
				</g>
			</g>
		</g>
		<g>
			<path class="st6" d="M315.23,419.76H153.1c-0.47,0-0.86,0.32-0.86,0.71v5.02c0,0.39,0.38,0.71,0.86,0.71h178.42
				c3.02,0,5.47-2.02,5.47-4.5v-32.62c0-2.49-2.45-4.5-5.47-4.5H153.1c-0.47,0-0.86,0.32-0.86,0.71v5.02c0,0.39,0.38,0.71,0.86,0.71
				h162.13c3.02,0,5.47,2.02,5.47,4.5v19.76C320.7,417.74,318.25,419.76,315.23,419.76z"/>
			<path class="st19" d="M159.27,390.99h163.8c2.74,0,4.97,2.22,4.97,4.97v18.83c0,2.74-2.22,4.97-4.97,4.97h-163.8V390.99z"/>
			<line class="st20" x1="328.04" y1="410.92" x2="251.99" y2="410.92"/>
			<line class="st20" x1="328.04" y1="405.22" x2="202.88" y2="405.22"/>
			<line class="st20" x1="328.04" y1="400" x2="170.01" y2="400"/>
			<line class="st20" x1="310.12" y1="394.42" x2="184.69" y2="394.42"/>
			<line class="st20" x1="224.49" y1="410.92" x2="180.97" y2="410.92"/>
		</g>
		<g>
			<path class="st7" d="M159.69,364.08h167.55c0.44,0,0.8-0.18,0.8-0.41v-2.92c0-0.23-0.36-0.41-0.8-0.41H144.44
				c-2.83,0-4.21,1.17-4.21,2.62v18.98c0,1.45,1.39,2.62,4.21,2.62h182.79c0.44,0,0.8-0.18,0.8-0.41v-2.92
				c0-0.23-0.36-0.41-0.8-0.41H159.69c-2.83,0-5.12-1.17-5.12-2.62v-11.5C154.57,365.26,156.86,364.08,159.69,364.08z"/>
			<path class="st19" d="M321.46,380.82h-173.6c-2.05,0-3.71-1.66-3.71-3.71v-9.33c0-2.05,1.66-3.71,3.71-3.71h173.6V380.82z"/>
			<line class="st20" x1="144.15" y1="369.22" x2="216.92" y2="369.22"/>
			<line class="st20" x1="144.15" y1="372.54" x2="263.91" y2="372.54"/>
			<line class="st20" x1="144.15" y1="375.58" x2="311.19" y2="375.58"/>
			<line class="st20" x1="161.29" y1="378.83" x2="297.14" y2="378.83"/>
			<line class="st20" x1="243.23" y1="369.22" x2="300.7" y2="369.22"/>
		</g>
		<g>
			<g>
				<path class="st8" d="M304.37,352.26c0.73-1.82,1.12-3.78,1.12-5.83c0-9.57-8.66-17.33-19.33-17.33c-1.78,0-3.5,0.22-5.14,0.62
					c0.02-0.21,0.04-0.41,0.04-0.62c0-5.07-4.59-9.18-10.24-9.18c-1.67,0-3.25,0.37-4.64,1l-5.06-76.64H240.3l-5.61,72.28
					c-1.96-3.84-7.51-5.47-10.24-5.47c-7.23,0-13.1,5.25-13.1,11.74c0,2.43,0.82,4.68,2.23,6.55c-11.04-0.62-21.06,8.53-21.06,17.05
					c0,2.04,0.4,4.01,1.12,5.83H304.37z"/>
				<path class="st0" d="M254.13,342.67c0.97-4.4,5.09-7.79,10.07-8.26c4.05-0.38,7.73,1.13,10.08,3.67c0.22,0.24,0.64,0,0.5-0.28
					c-1.9-3.78-6.27-6.34-11.26-6.06c-5.62,0.32-10.23,4.37-10.71,9.39c-0.13,1.33,0.03,2.6,0.42,3.79
					c0.11,0.35,0.69,0.27,0.68-0.09C253.9,344.14,253.97,343.41,254.13,342.67z"/>
				<path class="st0" d="M241.31,335.44c2.06-2.28,5.6-3.11,8.64-2.02c2.47,0.89,4.08,2.77,4.58,4.88c0.05,0.2,0.37,0.18,0.39-0.02
					c0.19-2.71-1.46-5.39-4.45-6.59c-3.36-1.35-7.41-0.28-9.4,2.5c-0.53,0.73-0.87,1.51-1.05,2.31c-0.05,0.23,0.31,0.35,0.43,0.14
					C240.68,336.22,240.97,335.82,241.31,335.44z"/>
				<path class="st0" d="M215.96,339.73c-1.74-4.35-0.09-9.31,4.04-12.08c3.37-2.25,7.51-2.66,11.09-1.53
					c0.34,0.11,0.57-0.3,0.28-0.49c-3.91-2.44-9.29-2.65-13.54-0.03c-4.78,2.95-6.48,8.71-3.94,13.39c0.67,1.23,1.56,2.29,2.6,3.16
					c0.3,0.25,0.77-0.09,0.55-0.4C216.62,341.13,216.25,340.46,215.96,339.73z"/>
				<polygon class="st0" points="254.93,250.11 257.28,334.83 260.06,333.18 				"/>
				<polygon class="st0" points="245.46,240.49 241.24,321.24 242.63,323.34 				"/>
			</g>
			<g>
				<g>
					<g>
						<g>
							<path class="st7" d="M216.31,223.39c-19.61,26.82-33.44,60.1-35.1,60.02c-4.23-0.22-6.51-51.58,2.51-72.62
								c7.88-18.39,23.64-28.13,29.81-28.14C217.81,182.65,216.31,223.39,216.31,223.39z"/>
						</g>
					</g>
					<path class="st6" d="M206.42,184.97c-3.17,1.68-6.77,4.26-10.31,7.73c-0.05,0.58-2.24,27.48,5.59,53.24
						c4.19-7.18,8.9-14.65,14.01-21.72L206.42,184.97z"/>
				</g>
				<g>
					<g>
						<g>
							<path class="st7" d="M281.35,223.39c19.61,26.82,33.44,60.1,35.1,60.02c4.23-0.22,6.51-51.58-2.51-72.62
								c-7.88-18.39-23.64-28.13-29.81-28.14C279.84,182.65,281.35,223.39,281.35,223.39z"/>
						</g>
					</g>
					<path class="st6" d="M291.23,184.97c3.17,1.68,6.77,4.26,10.31,7.73c0.05,0.58,2.24,27.48-5.59,53.24
						c-4.19-7.18-8.9-14.65-14.01-21.72L291.23,184.97z"/>
				</g>
			</g>
			<path class="st9" d="M276.64,247.6c0.65-0.24,1.19-0.72,1.5-1.34c6.3-12.59,10.13-31.44,10.13-57.86
				c0-56.72-35.42-92.4-39.44-92.4c-4.02,0-39.44,35.68-39.44,92.4c0,26.42,3.83,45.26,10.13,57.86c0.31,0.62,0.85,1.09,1.5,1.34
				c3.11,1.16,13.16,4.42,27.82,4.42C263.48,252.02,273.54,248.76,276.64,247.6z"/>
			<path class="st21" d="M280.37,243.13c0.66-0.2,1.23-0.61,1.6-1.2c7.09-11.2,11.41-27.94,11.41-51.41
				c0-50.44-40.02-112.83-44.56-112.83c-4.54,0-44.56,62.39-44.56,112.83c0,23.46,4.32,40.21,11.41,51.41c0.37,0.58,0.94,1,1.6,1.2
				c3.37,1,14.79,3.96,31.55,3.96C265.58,247.09,277,244.13,280.37,243.13z"/>
			<path class="st8" d="M286.21,235.53c8.53-13.73,13.75-34.57,13.75-64.09c0-61.84-45.93-106.59-51.13-106.59
				c-5.21,0-51.13,44.75-51.13,106.59c0,29.53,5.22,50.37,13.75,64.09c0,0,14.28,5.25,37.38,5.25
				C271.93,240.78,286.21,235.53,286.21,235.53z"/>
			
				<ellipse transform="matrix(0.7071 -0.7071 0.7071 0.7071 -19.7008 213.2855)" class="st21" cx="247.61" cy="130.42" rx="32.33" ry="32.33"/>
			<path class="st6" d="M272.42,130.44c0,13.69-11.08,24.81-24.81,24.81c-1.83,0-3.57-0.18-5.26-0.55c-2.75-0.6-5.36-1.65-7.64-3.11
				c-3.98-2.38-7.23-5.9-9.29-10.12c-1.69-3.34-2.65-7.09-2.65-11.03c0-0.87,0.05-1.79,0.14-2.65
				c1.24-11.63,10.44-20.83,22.06-22.06c0.87-0.09,1.79-0.14,2.65-0.14c3.98,0,7.78,0.96,11.08,2.65c4.21,2.06,7.74,5.31,10.07,9.29
				c1.46,2.29,2.52,4.9,3.11,7.64C272.24,126.86,272.42,128.6,272.42,130.44z"/>
			
				<ellipse transform="matrix(0.4338 -0.901 0.901 0.4338 22.6792 296.9382)" class="st9" cx="247.61" cy="130.42" rx="22.37" ry="22.37"/>
			<g>
				<path class="st6" d="M250.41,186.45c-4.62,0-15.77,28.16-14.11,35.02c0,0,10.75,71.08,14.11,71.08s14.11-71.08,14.11-71.08
					C266.17,214.61,255.02,186.45,250.41,186.45z"/>
				<path class="st7" d="M250.41,186.45c-4.62,0-15.77,28.16-14.11,35.02c0,0,10.75,50.88,14.11,50.88s14.11-50.88,14.11-50.88
					C266.17,214.61,255.02,186.45,250.41,186.45z"/>
			</g>
			<g>
				<defs>
					
						<ellipse id="SVGID_1_" transform="matrix(0.4338 -0.901 0.901 0.4338 22.6792 296.9382)" cx="247.61" cy="130.42" rx="22.37" ry="22.37"/>
				</defs>
				<clipPath id="SVGID_2_">
					<use xlink:href="#SVGID_1_"  style="overflow:visible;"/>
				</clipPath>
				<g class="st22">
					<polygon class="st0" points="274.35,92.56 265.19,92.56 222.27,168.29 231.44,168.29 					"/>
					<polygon class="st0" points="285.47,92.56 280.63,92.56 237.72,168.29 242.56,168.29 					"/>
				</g>
			</g>
			<path class="st8" d="M248.83,64.85c5.21,0,30.47,44.75,30.47,106.59c0,28.91-5.84,54.49-14.09,68.43c13.27-1.5,21-4.34,21-4.34
				c8.53-13.73,13.75-34.57,13.75-64.09C299.96,109.6,254.03,64.85,248.83,64.85z"/>
			<ellipse class="st8" cx="307.05" cy="350.65" rx="20.18" ry="8.41"/>
			<path class="st8" d="M205.66,346.24c1.02,4.53-6.98,10.18-17.86,12.62c-10.88,2.44-20.52,0.74-21.53-3.79s6.98-10.18,17.86-12.62
				C195.01,340.01,204.65,341.71,205.66,346.24z"/>
		</g>
		<g>
			<path class="st10" d="M258.97,343.95c-10.29,0.01-13.71,5.25-14.84,7.44c-1.14-2.19-4.55-7.43-14.84-7.44
				c-15.11-0.01-76.2,6.67-76.2,6.67v2.55h182.09v-2.55C335.17,350.62,274.08,343.94,258.97,343.95z"/>
			<g>
				<g>
					<path class="st23" d="M334.4,352.17c0,0-60.32-5.78-75.43-5.77c-10.29,0.01-13.71,4.35-14.84,6.54
						c-1.14-2.19-4.55-6.53-14.84-6.54c-15.11-0.01-75.43,5.77-75.43,5.77"/>
				</g>
				<path class="st24" d="M206.3,352.01c0,0,21.7-1.09,26.59-0.68c6.85,0.57,11.24,1.61,11.24,1.61s-4.66-4.37-15.67-4.37
					c-6.62,0-74.61,4.61-74.61,4.61"/>
				<line class="st24" x1="204.81" y1="351.91" x2="171.21" y2="353.18"/>
				<path class="st24" d="M282.05,352.01c0,0-21.7-1.09-26.59-0.68c-6.85,0.57-11.24,1.61-11.24,1.61s4.66-4.37,15.67-4.37
					c6.62,0,74.61,4.61,74.61,4.61"/>
				<line class="st24" x1="283.54" y1="351.91" x2="317.14" y2="353.18"/>
			</g>
			<path class="st21" d="M338,360.34H151.38c-0.53,0-0.95-0.43-0.95-0.95v-5.25c0-0.53,0.43-0.95,0.95-0.95H338
				c0.53,0,0.95,0.43,0.95,0.95v5.25C338.95,359.91,338.53,360.34,338,360.34z"/>
		</g>
		<g id="XMLID_216_">
			<g>
				<path class="st3" d="M357.61,305.13l-1.89-7.84l-3.28,0.79c-1.21-2.65-2.91-4.97-4.99-6.86l1.76-2.87l-6.88-4.2l-1.76,2.87
					c-2.63-0.99-5.48-1.45-8.39-1.31l-0.79-3.28l-7.84,1.89l0.79,3.28c-2.65,1.21-4.97,2.92-6.86,4.99l-2.87-1.75l-4.2,6.88
					l2.87,1.76c-0.98,2.63-1.44,5.48-1.31,8.39l-3.28,0.79l1.89,7.84l3.28-0.79c1.21,2.65,2.91,4.97,4.99,6.86l-1.76,2.87l6.88,4.21
					l1.76-2.88c2.63,0.98,5.47,1.44,8.38,1.31l0.79,3.29l7.84-1.89l-0.79-3.29c2.65-1.21,4.97-2.91,6.86-4.99l2.88,1.76l4.2-6.88
					l-2.88-1.76c0.98-2.63,1.44-5.47,1.31-8.38L357.61,305.13z M336.31,319.99c-7.23,1.75-14.51-2.71-16.25-9.94
					c-1.74-7.22,2.7-14.5,9.93-16.25c7.23-1.75,14.51,2.71,16.25,9.93C347.98,310.96,343.55,318.24,336.31,319.99z"/>
				<path class="st3" d="M334.96,314.38c-4.13,1-8.29-1.55-9.29-5.68c-1-4.13,1.54-8.29,5.68-9.29c4.13-1,8.29,1.55,9.29,5.68
					C341.63,309.22,339.09,313.38,334.96,314.38z"/>
			</g>
			<g id="XMLID_49_">
				<path id="XMLID_183_" class="st1" d="M399.05,440.49c0,2.17-14.55,3.93-32.49,3.93c-17.94,0-32.49-1.76-32.49-3.93
					c0-2.17,14.55-3.93,32.49-3.93C384.51,436.56,399.05,438.32,399.05,440.49z"/>
				<g id="XMLID_159_">
					<path id="XMLID_173_" class="st5" d="M352.87,431.31c0,0-0.01,3.33,0.2,4.52c0.21,1.19,3.47,0.92,3.78,0.26
						c0.31-0.66-0.11-6.19-0.11-6.19"/>
					<path id="XMLID_163_" class="st4" d="M357.38,436.21c0.04,1.07,0.24,2.64-0.06,3.08c-0.31,0.44-4.59,0.8-5.59,1.02
						c-0.75,0.16-2.3,0.24-3.06,0.15c-2.66-0.32-4.45-1.27-4.53-1.68c-0.3-1.7,5.02-1.24,8.55-4.77c0,0,0.39,0.07,0.66,0.53
						c0.42,0.71,1.19,1.17,2,1c0.46-0.1,0.93-0.29,1.25-0.66C356.61,434.88,357.35,435.14,357.38,436.21z"/>
				</g>
				<path id="XMLID_150_" class="st21" d="M381.01,338.55c1.35-1,2.83-2.12,4.23-3.29c3.19-2.68,6.05-5.6,6.4-7.72
					c0.78-4.75,0.17-18.89-0.21-25.55c-0.01-0.4-0.04-0.78-0.06-1.13c-0.38-6.3-3.77-9.1-5.46-10.12
					c-0.87,8.19-2.82,26.69-2.97,27.64C382.73,319.59,381.01,338.55,381.01,338.55z"/>
				<path id="XMLID_149_" class="st25" d="M381.01,338.55c1.35-1,2.83-2.12,4.23-3.29c0.12-5.21,1.67-12.49,3.85-21.59
					c2.59-11.48,0.96-13.59,0.96-13.59l-5.21,0.79c-0.87,8.11-1.8,16.86-1.91,17.51C382.73,319.59,381.01,338.55,381.01,338.55z"/>
				<g>
					<g id="XMLID_176_">
						<path id="XMLID_181_" class="st5" d="M380.5,429.57c0,0,0.45,4,0.62,5.02c0.17,1.02,3.43,0.81,3.76,0.24
							c0.33-0.56,0.11-5.27,0.11-5.27"/>
						<path id="XMLID_1_" class="st4" d="M385.75,435.11c0.11,1.06,0.43,2.61,0.16,3.08c-0.27,0.46-4.52,1.13-5.5,1.42
							c-0.73,0.22-2.27,0.4-3.04,0.37c-2.67-0.13-4.54-0.95-4.64-1.35c-0.43-1.68,4.91-1.6,8.18-5.38c0,0,0.39,0.04,0.7,0.49
							c0.47,0.68,1.27,1.09,2.07,0.86c0.46-0.13,1.05-0.49,1.35-0.88C385.04,433.7,385.64,434.04,385.75,435.11z"/>
					</g>
					<path class="st17" d="M382.12,336.88l-15.56-0.08l1.49,19.25l0.51,6.51c0,0,1.46,26.09,2.64,30.19
						c1.97,11.5,9.05,39.97,9.05,39.97c1.89,0.51,4.07,0.5,5.38-0.32c-1.4-15.18,1.42-32.08-4.63-42.91
						c0.95-6.98,2.4-13.18,3.81-29.09c0.28-3.21,1.38-3.72,1.76-10.4C386.94,343.31,382.12,336.88,382.12,336.88z"/>
					<path id="XMLID_146_" class="st18" d="M369.85,381.5c0.7-3.21,2.84-10.01,4.13-13.53c1.8-4.91,3.78-7.16,3.78-7.16
						c7.11-8.91,0.8-19.06,0.8-19.06s-5.92,5.84-6.31,6.43c-0.38,0.55-2.53,5.26-4.2,7.87l0.51,6.51
						C368.55,362.55,369.15,371.59,369.85,381.5z"/>
				</g>
				<path class="st17" d="M378.65,336.91l-20.11,0.91c0,0-5.47,42.94-5.17,51.14c0.56,14.86-0.95,43.6-0.95,43.6s2.44,2.3,5.21,0.95
					c0,0,10.4-25.49,7.29-41.85c1.44-5.96,6.9-25.63,8.65-28.36C376.04,359.5,385.37,355.9,378.65,336.91z"/>
				<path id="XMLID_136_" class="st5" d="M377.77,287.06c0,0-1.12-3.78-0.63-6.57c0.49-2.79,2.16-7.81,1.53-11.57
					c-0.63-3.76-5.37-6.9-10.39-6.41c-5.02,0.49-6.48,5.3-7.32,8.09c-0.84,2.79-0.7,7.04-0.49,9.34c0.21,2.3,1.46,4.11,2.3,4.6
					c0.84,0.49,3.98-0.16,4.54,0.45c0.55,0.6,0.97,4.16,0.97,4.16"/>
				<path id="XMLID_272_" class="st8" d="M380.14,290.05c0,0-0.28-2.2-1.12-2.98c-0.84-0.78-6.41-0.78-8.09-0.57
					s-5.8,2.13-6.34,2.54c-0.55,0.41,0.53,2.52,0.53,2.52L380.14,290.05z"/>
				<g id="XMLID_271_">
					<path class="st4" d="M377.84,282.21c-0.07,0.04-0.13,0.08-0.2,0.12c-1.21,0.63-2.79,0.52-3.9-0.29
						c-0.91,0.71-2.08,1.23-3.22,0.99c-1.14-0.24-2.07-1.48-1.63-2.54c-0.89,0.14-1.85-0.16-2.49-0.78
						c-1.32-1.28-0.45-2.39-0.46-3.86c-0.01-1.05-0.08-2.85-1.45-3.06c-0.51-0.08-1.07,0.19-1.31,0.64c-0.1,0.18-0.16,0.4-0.34,0.52
						c-0.23,0.16-0.57,0.05-0.75-0.16c-0.18-0.21-0.23-0.5-0.25-0.78c-0.09-1.28,0.42-2.62,1.37-3.51c-1.88-1.07-2.9-2.89-3.1-5.01
						c-0.08-0.89-0.03-1.82,0.38-2.61c0.57-1.1,1.74-1.76,2.9-2.23c1.52-0.63,3.02-0.79,4.64-0.49c1.84,0.33,2.46,1.47,3.88,1.92
						c2.27-0.76,5.32-0.02,5.8,2.48c1.19-0.21,2.44,0.06,3.22,1.07c1.09,1.4,0.24,2.58-0.13,4.02c-0.51,2.01,0.14,3.74,0.03,5.7
						c-0.09,1.68-1.29,3.1-1.73,4.69C378.76,280.21,379.06,281.46,377.84,282.21z"/>
				</g>
				<g>
					<path id="XMLID_268_" class="st21" d="M358.18,333.53c-0.26,2.18-2.17,7.53-0.87,8.01c0.52,0.18,2.66,0.06,5.27-0.16h0.07
						c0.05,0,0.09-0.01,0.12-0.01c2.32-0.2,4.96-0.45,7.18-0.62c8.86-0.38,13.39-0.58,14.28-1.08c0.43-0.26,0.44-1.02,0.3-1.82
						c-0.3-1.95-0.4-3.91-0.15-5.88c0.22-1.65,0.52-3.61,0.95-5.85c1.46-7.77,4.33-19.63,4.75-26.76
						c0.68-11.18-11.29-10.12-11.29-10.12c-15.24-0.95-22.4,3.44-23.23,9.99c-0.06,0.46-0.1,0.96-0.13,1.49
						c-0.39,6.75,1.67,17.65,2.65,25.8C358.37,328.75,358.32,331.34,358.18,333.53z"/>
					<path id="XMLID_135_" class="st25" d="M358.18,333.53c-0.26,2.18-2.17,7.53-0.87,8.01c0.52,0.18,2.66,0.06,5.27-0.16
						c-2.35,0.17-2.79-3.6-2.27-4.81c0.52-1.22,1.61-3.96,1.51-7.22c-0.11-3.24-1.33-10.56-2.05-17.47
						c-0.68-6.43-0.1-11.45-0.01-12.12c-0.37,0.73-1.41,1.76-4.36,2.44c-0.06,6.79,1.79,16.74,2.69,24.31
						C358.37,328.75,358.32,331.34,358.18,333.53z"/>
				</g>
				<path id="XMLID_134_" class="st5" d="M319.3,329.36c-0.35-0.19,0.02-0.59,0.37-0.59c0.05,0,0.15,0.02,0.29,0.04
					c-0.62-0.2-1.12-0.38-1.24-0.44c-0.33-0.18-0.02-0.56,0.31-0.6c-0.25-0.09-0.43-0.16-0.51-0.2c-0.43-0.22-0.05-0.62,0.37-0.59
					c0.09,0.01,0.34,0.06,0.66,0.14c-0.16-0.06-0.29-0.11-0.34-0.13c-0.35-0.19-0.08-0.57,0.27-0.57c0.12,0,0.3,0.05,0.76,0.16
					c0.39,0.09,0.83,0.15,1.22,0.25c0.54,0.14,1.13,0.2,1.14,0.2c1.35-0.43,2.01-1.15,2.01-1.15l-1.33-0.74c0,0-0.08-1.17,3.63,0.24
					c0.55,0.21,1.02,0.97,1.37,1.06c0.35,0.09,1.37,0.08,1.37,0.08l0,3.25c0,0-1.81-0.32-2.35-0.1c-0.53,0.23-2.69,0.91-3.06,0.95
					c-0.15,0.02-0.8-0.05-1.55-0.15l-1.11-0.23l-1.04-0.33C320.54,329.89,319.42,329.42,319.3,329.36z"/>
				<path id="XMLID_79_" class="st21" d="M328.83,329.99c0,0,5.8,1.32,10.52,2.2c3.65,0.66,7.52,1.2,11.33,0.92
					c0.03,0,0.06,0.01,0.09,0.01c2.36-0.09,5.49-0.78,6.22-1.84c0.73-1.06,2.15-5.23,2.15-5.23c1.19-2.46,3-9.15,4.52-14.84
					c0.03-0.09,0.05-0.18,0.07-0.26c0.71-2.65,1.36-5.07,1.84-6.72c0.24-0.77,0.21-1.59-0.06-2.31c-0.22-0.65-0.64-1.22-1.24-1.62
					c-0.01-0.02-0.01-0.02-0.02-0.02c-1.6-1.09-1.11-2.63-2.75-1.57c-0.08,0.04-1.07-0.25-1.14-0.2c-1.06-2.59-0.35-6.08-0.35-6.08
					s-4.61,2.02-6.28,11.51c-0.37,2.11-2.68,16.96-2.84,18.78c-0.01,0.14-0.01,0.27-0.02,0.4c0,0-0.06,0.21-0.12,0.54
					c-0.02,0.1-0.02,0.23-0.03,0.36c-1.37-0.04-2.89,0.06-4.5,0.43c-5.25,1.2-17.02,1.8-17.02,1.8l-0.31,2.93l0,0.04l0.01,0.02
					L328.83,329.99z"/>
			</g>
		</g>
		<g>
			<polygon class="st26" points="318.03,84.43 334.15,104.01 333.98,97.26 			"/>
			<polygon class="st8" points="342.36,93.96 325.43,102.12 318.03,84.43 			"/>
			<polygon class="st27" points="318.03,84.43 336.26,96.9 334.15,104.01 332.72,98.61 			"/>
		</g>
		<g>
			<path class="st1" d="M198.55,439.4c0,3.61-29.12,6.54-65.05,6.54c-35.93,0-65.05-2.93-65.05-6.54c0-3.61,29.12-6.54,65.05-6.54
				C169.43,432.86,198.55,435.79,198.55,439.4z"/>
			<g>
				<g>
					<polygon class="st28" points="155.1,379.18 155.12,397.27 154.19,395.53 153.26,397.27 152.34,395.54 151.42,397.28 
						150.49,395.54 149.56,397.28 148.64,395.54 147.71,397.28 147.69,379.19 					"/>
				</g>
				<g>
					
						<rect x="129.36" y="380.42" transform="matrix(1 -1.137261e-03 1.137261e-03 1 -0.4666 0.1756)" class="st8" width="49.61" height="59.97"/>
					
						<rect x="129.33" y="380.42" transform="matrix(1 -1.115597e-03 1.115597e-03 1 -0.4303 0.1722)" class="st8" width="49.61" height="10.85"/>
					
						<rect x="128.1" y="379.19" transform="matrix(1 -1.137720e-03 1.137720e-03 1 -0.4375 0.1751)" class="st8" width="51.24" height="10.84"/>
					<polygon class="st29" points="158.11,379.18 158.13,397.27 157.2,395.53 156.28,397.27 155.35,395.53 154.43,397.27 
						153.5,395.53 152.57,397.28 151.65,395.54 150.72,397.28 150.7,379.19 					"/>
				</g>
			</g>
			<g>
				<g>
					<polygon class="st8" points="137.17,396.83 93.19,396.78 93.18,404.51 93.54,404.51 93.49,440.44 137.15,440.49 					"/>
				</g>
				<g>
					<g>
						<g>
							<path class="st10" d="M89.11,376.7c1.06-5.6,4.26-10.9,9.33-13.74c2.93-1.64,6.27-2.93,9.67-2.94
								c2.97-0.01,5.95,0.65,8.68,1.8c4.71,1.98,8.79,5.67,10.7,10.41c1.6,3.95,1.59,8.37,0.66,12.49
								c-0.91,4.01-3.16,8.13-1.68,12.31c0.42,1.19,1.65,2.5,1.28,3.83c-0.44,1.59-2.26,2.1-3.55,2.77
								c-1.53,0.81-3.06,1.62-4.59,2.43c-1.1,0.58-2.68,1.82-4.01,1.32c-1.32-0.43-1.73-2.17-2.49-3.18
								c-2.01-2.67-5.55-3.81-8.65-4.58c-3.57-0.89-6.81-2.37-9.54-4.88C89.88,390.09,87.85,383.4,89.11,376.7z"/>
						</g>
						<path class="st11" d="M123.52,405.01c0,0-5.1-10.4-7.32-15.65c-0.59-1.39-1.22-2.81-1.67-5.19c-0.29-1.53-0.66-4.91,1.52-5.26
							c2.58-0.42,2.34,3.33,1.27,4.69c-0.88,1.12-3.14,2.04-4.59,1.98c-2.55-0.1-4.86-2.36-5.69-4.54c-0.63-1.67,1.41-2.91,2.68-1.8
							c1.21,1.07,2.73,6.52,0.24,8.04c-1.31,0.8-2.93,0.99-4.43,0.68c-2.71-0.56-3.34-5.02,0.11-3.77c2.45,0.88,4.44,3.5,5.73,5.63
							c3.53,5.85,6.15,10.53,9.57,16.44"/>
						
							<rect x="116.53" y="404.61" transform="matrix(-0.8809 0.4734 -0.4734 -0.8809 422.0193 704.1741)" class="st6" width="11.73" height="1.16"/>
						<path class="st7" d="M118.81,412.33c0.06-0.31-0.13-0.66-0.43-0.76l-0.1-0.03c-0.29-0.1-0.49-0.43-0.43-0.74l0.03-0.19
							c0.06-0.32-0.16-0.67-0.47-0.75c-0.3-0.08-0.52-0.42-0.47-0.74l0.08-0.52c0.03-0.19,0.14-0.35,0.31-0.44l10.27-5.52
							c0.17-0.09,0.37-0.1,0.54-0.02l0.47,0.22c0.29,0.14,0.46,0.5,0.36,0.8c-0.1,0.3,0.07,0.67,0.37,0.8l0.17,0.08
							c0.29,0.12,0.46,0.47,0.38,0.77l-0.03,0.1c-0.08,0.3,0.1,0.66,0.39,0.78l0.13,0.05c0.3,0.12,0.48,0.49,0.39,0.79l-0.02,0.07
							c-0.1,0.34-0.31,0.61-0.6,0.76l-9.92,5.33c-0.29,0.15-0.63,0.18-0.96,0.08l-0.07-0.02c-0.31-0.09-0.51-0.44-0.45-0.76
							L118.81,412.33z"/>
						<g>
							<g>
								<path class="st6" d="M117.88,409.73c-0.02-0.02-0.04-0.04-0.05-0.06c-0.05-0.09-0.01-0.21,0.08-0.26l4.78-2.57
									c0.09-0.05,0.21-0.01,0.26,0.08c0.05,0.09,0.01,0.21-0.08,0.26l-4.78,2.57C118.02,409.78,117.94,409.77,117.88,409.73z"/>
							</g>
							<g>
								<path class="st6" d="M124.8,406.01c-0.02-0.02-0.04-0.04-0.05-0.06c-0.05-0.09-0.01-0.21,0.08-0.26l2.65-1.43
									c0.09-0.05,0.21-0.01,0.26,0.08c0.05,0.09,0.01,0.21-0.08,0.26l-2.65,1.43C124.94,406.06,124.85,406.06,124.8,406.01z"/>
							</g>
							<g>
								<path class="st6" d="M121.84,409.11c-0.02-0.02-0.04-0.04-0.05-0.06c-0.05-0.09-0.01-0.21,0.08-0.26l6.93-3.73
									c0.09-0.05,0.21-0.01,0.26,0.08c0.05,0.09,0.01,0.21-0.08,0.26l-6.93,3.73C121.98,409.17,121.9,409.16,121.84,409.11z"/>
							</g>
							<g>
								<path class="st6" d="M118.49,410.91c-0.02-0.02-0.04-0.04-0.05-0.06c-0.05-0.09-0.01-0.21,0.08-0.26l2.05-1.1
									c0.09-0.05,0.21-0.01,0.26,0.08c0.05,0.09,0.01,0.21-0.08,0.26l-2.05,1.1C118.63,410.96,118.55,410.95,118.49,410.91z"/>
							</g>
							<g>
								<path class="st6" d="M125,408.92c-0.02-0.02-0.04-0.04-0.05-0.06c-0.05-0.09-0.01-0.21,0.08-0.26l3.71-1.99
									c0.09-0.05,0.21-0.01,0.26,0.08c0.05,0.09,0.01,0.21-0.08,0.26l-3.71,1.99C125.14,408.98,125.06,408.97,125,408.92z"/>
							</g>
							<g>
								<path class="st6" d="M121.08,411.03c-0.02-0.02-0.04-0.04-0.05-0.06c-0.05-0.09-0.01-0.21,0.08-0.26l1.49-0.8
									c0.09-0.05,0.21-0.02,0.26,0.08c0.05,0.09,0.01,0.21-0.08,0.26l-1.49,0.8C121.22,411.08,121.14,411.07,121.08,411.03z"/>
							</g>
							<g>
								<path class="st6" d="M123.6,406.66c-0.02-0.02-0.04-0.04-0.05-0.06c-0.05-0.09-0.01-0.21,0.08-0.26l0.54-0.29
									c0.09-0.05,0.21-0.01,0.26,0.08c0.05,0.09,0.01,0.21-0.08,0.26l-0.54,0.29C123.73,406.71,123.65,406.7,123.6,406.66z"/>
							</g>
						</g>
						<g>
							<path class="st10" d="M89.11,376.7c1.06-5.6,4.26-10.9,9.33-13.74c0.58-0.32,1.17-0.63,1.78-0.92
								c-7.93,4.91-11.2,15.85-6.33,24.28c4.1,7.09,10.38,10.33,19.35,9.57c1.88-0.16,3.51,0.26,4.69,1.87
								c1.09,1.49,1.46,3.4,2.66,4.83c0.18,0.22,0.39,0.42,0.66,0.51c0.25,0.08,0.52,0.05,0.78,0.01c2.14-0.33,4.1-1.3,5.79-2.65
								c-0.01,0.13-0.02,0.26-0.06,0.4c-0.44,1.59-2.26,2.1-3.55,2.77c-1.53,0.81-3.06,1.62-4.59,2.43
								c-1.1,0.58-2.68,1.82-4.01,1.32c-1.32-0.43-1.73-2.17-2.49-3.18c-2.01-2.67-5.55-3.81-8.65-4.58
								c-3.57-0.89-6.81-2.37-9.54-4.88C89.88,390.09,87.85,383.4,89.11,376.7z"/>
						</g>
					</g>
				</g>
				<g>
					
						<rect x="91.31" y="397.24" transform="matrix(1.136063e-03 -1 1 1.136063e-03 -306.4974 531.2906)" class="st15" width="42.78" height="43.66"/>
				</g>
			</g>
		</g>
		<g>
			<path class="st12" d="M406.22,170.12l-2.82-11.67l-4.89,1.18c-1.79-3.94-4.34-7.4-7.42-10.21l2.61-4.28l-10.24-6.26l-2.61,4.27
				c-3.91-1.47-8.15-2.15-12.48-1.95l-1.18-4.88l-11.67,2.82l1.18,4.88c-3.95,1.8-7.4,4.34-10.22,7.43l-4.27-2.61l-6.26,10.24
				l4.27,2.61c-1.46,3.92-2.15,8.15-1.95,12.48l-4.88,1.18l2.82,11.67l4.88-1.18c1.8,3.94,4.34,7.4,7.43,10.21l-2.61,4.28
				l10.24,6.26l2.61-4.28c3.91,1.46,8.15,2.15,12.47,1.94l1.18,4.89l11.67-2.82l-1.18-4.89c3.94-1.79,7.4-4.33,10.21-7.42l4.28,2.61
				l6.26-10.24l-4.28-2.61c1.46-3.91,2.15-8.15,1.95-12.47L406.22,170.12z M375.17,194.92c-12.25,2.96-24.56-4.58-27.52-16.83
				c-2.95-12.23,4.56-24.56,16.81-27.52c12.25-2.96,24.56,4.58,27.52,16.81C394.93,179.63,387.42,191.96,375.17,194.92z"/>
			<path class="st12" d="M373.23,186.91c-7.83,1.89-15.7-2.93-17.59-10.76c-1.89-7.81,2.92-15.69,10.74-17.58
				c7.83-1.89,15.7,2.93,17.58,10.74C385.86,177.15,381.06,185.02,373.23,186.91z"/>
		</g>
		<path class="st27" d="M332.51,142.56h-1.79v-1.79c0-0.29-0.23-0.52-0.52-0.52c-0.29,0-0.52,0.23-0.52,0.52v1.79h-1.79
			c-0.29,0-0.52,0.23-0.52,0.52c0,0.29,0.23,0.52,0.52,0.52h1.79v1.79c0,0.29,0.23,0.52,0.52,0.52c0.29,0,0.52-0.23,0.52-0.52v-1.79
			h1.79c0.29,0,0.52-0.23,0.52-0.52C333.03,142.8,332.8,142.56,332.51,142.56z"/>
		<path class="st27" d="M299.46,110.97h-1.79v-1.79c0-0.29-0.23-0.52-0.52-0.52c-0.29,0-0.52,0.23-0.52,0.52v1.79h-1.79
			c-0.29,0-0.52,0.23-0.52,0.52s0.23,0.52,0.52,0.52h1.79v1.79c0,0.29,0.23,0.52,0.52,0.52c0.29,0,0.52-0.23,0.52-0.52v-1.79h1.79
			c0.29,0,0.52-0.23,0.52-0.52S299.75,110.97,299.46,110.97z"/>
		<path class="st27" d="M163.28,233.72h-1.79v-1.79c0-0.29-0.23-0.52-0.52-0.52c-0.29,0-0.52,0.23-0.52,0.52v1.79h-1.79
			c-0.29,0-0.52,0.23-0.52,0.52s0.23,0.52,0.52,0.52h1.79v1.79c0,0.29,0.23,0.52,0.52,0.52c0.29,0,0.52-0.23,0.52-0.52v-1.79h1.79
			c0.29,0,0.52-0.23,0.52-0.52S163.57,233.72,163.28,233.72z"/>
		<path class="st27" d="M378.17,226.18h-1.79v-1.79c0-0.29-0.23-0.52-0.52-0.52c-0.29,0-0.52,0.23-0.52,0.52v1.79h-1.79
			c-0.29,0-0.52,0.23-0.52,0.52c0,0.29,0.23,0.52,0.52,0.52h1.79v1.79c0,0.29,0.23,0.52,0.52,0.52c0.29,0,0.52-0.23,0.52-0.52v-1.79
			h1.79c0.29,0,0.52-0.23,0.52-0.52C378.7,226.41,378.46,226.18,378.17,226.18z"/>
		<path class="st27" d="M111.09,129.89h-1.79v-1.79c0-0.29-0.23-0.52-0.52-0.52s-0.52,0.23-0.52,0.52v1.79h-1.79
			c-0.29,0-0.52,0.23-0.52,0.52c0,0.29,0.23,0.52,0.52,0.52h1.79v1.79c0,0.29,0.23,0.52,0.52,0.52s0.52-0.23,0.52-0.52v-1.79h1.79
			c0.29,0,0.52-0.23,0.52-0.52C111.61,130.12,111.38,129.89,111.09,129.89z"/>
		<circle class="st13" cx="159.12" cy="174.59" r="1.85"/>
		<path class="st13" d="M212.63,276.63c0,1.02-0.83,1.85-1.85,1.85c-1.02,0-1.85-0.83-1.85-1.85s0.83-1.85,1.85-1.85
			C211.8,274.78,212.63,275.61,212.63,276.63z"/>
		<path class="st13" d="M73.77,247.1c0,1.02-0.83,1.85-1.85,1.85c-1.02,0-1.85-0.83-1.85-1.85c0-1.02,0.83-1.85,1.85-1.85
			C72.94,245.25,73.77,246.08,73.77,247.1z"/>
		<circle class="st13" cx="200.69" cy="100.27" r="1.85"/>
		<path class="st13" d="M333.9,202.05c0,1.02-0.83,1.85-1.85,1.85c-1.02,0-1.85-0.83-1.85-1.85c0-1.02,0.83-1.85,1.85-1.85
			C333.07,200.19,333.9,201.02,333.9,202.05z"/>
		<g>
			<g>
				<path class="st13" d="M339.69,101.92c0.09,0.5,0.21,0.99,0.34,1.46"/>
				<path class="st30" d="M341.17,106.21c2.78,5.23,8.47,8.13,14.31,9.74c8,2.21,16.26,3.23,24.47,4.28
					c7.09,0.91,14.52,1.95,20.62,5.95c6.27,4.11,12.13,13.52,3.47,21.8"/>
				<path class="st13" d="M402.9,149.01c-0.37,0.31-0.77,0.62-1.19,0.92"/>
			</g>
		</g>
		<g>
			<g>
				<path class="st13" d="M61.32,271.86c-0.46,0.12-0.94,0.25-1.45,0.39"/>
				<path class="st31" d="M56.98,273.13c-9.64,3.13-22.65,9.52-17.19,19.23c7.92,14.1,29.46,12.79,43.21,13.01
					c33.27,0.54,66.55-2.89,99.79-1.7c23.13,0.83,52.16,10.93,55.67,33.48"/>
				<path class="st13" d="M238.65,338.65c0.05,0.49,0.09,0.99,0.12,1.5"/>
			</g>
		</g>
		<g>
			<path class="st3" d="M90.84,414.49c-12.15,0.13-24.4,1.25-36.33,3.28c-7.08,1.21-14.54,2.69-20.94,6.09
				c-3.13,1.67-7.82,5.09-6.54,9.29c1.18,3.86,6.58,5.41,9.96,6.35c6.59,1.83,13.52,2.54,20.33,3.09
				c11.74,0.94,23.48,0.89,35.24,0.92c9.84,0.03,25.08,1.51,28.85-10.53c2.11-6.72-0.83-13.8-2.75-20.19
				c-1.18-3.94-2.18-8.27-0.94-12.33c0.68-2.23,2.09-4.56,4.56-5.01c2.11-0.38,4,0.65,4.87,2.57c0.37,0.81,1.56,0.11,1.2-0.7
				c-1.55-3.39-5.9-4.32-8.86-2.12c-4.6,3.41-4.09,10.56-2.88,15.45c1.63,6.56,4.98,13.13,3.88,20.07
				c-0.92,5.77-5.52,9.27-10.93,10.66c-7.02,1.8-14.66,0.82-21.88,0.85c-5.94,0.03-11.88-0.03-17.82-0.23
				c-7.33-0.25-14.67-0.68-21.94-1.66c-5.53-0.74-11.83-1.55-16.74-4.43c-3.99-2.34-3.74-5.93-0.33-8.85
				c5.01-4.28,12.45-5.88,18.71-7.23c13.49-2.91,27.46-4.07,41.29-4.59L90.84,414.49z"/>
		</g>
	</g>
</g>
<g id="DESIGNED_BY_FREEPIK">
</g>
</svg>
